<svg height="496pt" viewBox="0 0 496 496" width="496pt" xmlns="http://www.w3.org/2000/svg" xmlns:xlink="http://www.w3.org/1999/xlink"><linearGradient id="a" gradientUnits="userSpaceOnUse" x1="248" x2="248" y1="496" y2="0"><stop offset="0" stop-color="#9f2fff"/><stop offset="1" stop-color="#0bb1d3"/></linearGradient><path d="m96.078125 254.863281 15.84375 2.265625-8.984375 62.871094h-19.21875l-11.71875-17.574219-11.71875 17.574219h-19.21875l-8.984375-62.863281 15.84375-2.265625 6.445313 45.160156 17.632812-26.457031 17.632812 26.449219zm89.554687 45.160157-17.632812-26.449219-17.632812 26.449219-6.445313-45.160157-15.84375 2.265625 8.984375 62.871094h19.21875l11.71875-17.574219 11.71875 17.574219h19.21875l8.984375-62.863281-15.84375-2.265625zm96 0-17.632812-26.449219-17.632812 26.449219-6.445313-45.160157-15.84375 2.265625 8.984375 62.871094h19.21875l11.71875-17.574219 11.71875 17.574219h19.21875l8.984375-62.863281-15.84375-2.265625zm134.367188-80.648438v20.625c13.230469 0 24 10.769531 24 24v9.855469c32.015625 7.304687 56 35.953125 56 70.144531v64c0 48.519531-39.480469 88-88 88s-88-39.480469-88-88v-57.472656c-2.511719.898437-5.183594 1.472656-8 1.472656h-288c-13.230469 0-24-10.769531-24-24v-80c0-13.230469 10.769531-24 24-24h84.382812c-36.023437-20.726562-60.382812-59.535156-60.382812-104 0-66.167969 53.832031-120 120-120 63.472656 0 115.449219 49.558594 119.59375 112h171.78125c20.191406 0 36.625 16.433594 36.625 36.625 0 15.0625-9.039062 28.40625-23.023438 34l-44.015624 17.605469c-7.871094 3.152343-12.960938 10.65625-12.960938 19.144531zm-146.902344-123.375h-13.457031c-4.214844 0-7.640625 3.425781-7.640625 7.632812 0 7.917969-3.9375 15.269532-10.519531 19.664063l-4.105469 2.734375c-5.871094 3.914062-9.375 10.464844-9.375 17.511719 0 7.351562 3.910156 14.273437 10.214844 18.058593l22 13.199219c9.945312-15.9375 15.785156-34.679687 15.785156-54.800781 0-8.273438-1.070312-16.28125-2.902344-24zm-61.097656-71.976562v8.695312c0 12.832031-10.449219 23.28125-23.28125 23.28125-9.214844 0-16.71875 7.535156-16.71875 16.816406 0 13.007813-10.175781 23.183594-22.695312 23.183594h-7.417969c-7.984375 0-15.167969 4.441406-18.734375 11.574219-6.304688 12.59375-18.96875 20.425781-33.039063 20.425781h-21.707031c.417969 5.464844 1.265625 10.800781 2.503906 16h30.089844c3.632812 0 7.167969-.679688 10.527344-2.03125l7.625-3.046875c18.558594-7.425781 39.960937-1.457031 51.976562 14.574219 5.71875 7.640625 8.871094 17.089844 8.871094 26.632812v7.222656c0 4.121094 2.625 7.761719 6.527344 9.0625 9.90625 3.304688 16.648437 12.25 17.335937 22.546876 18.394531-5.9375 34.519531-16.882813 46.855469-31.199219l-20.726562-12.441407c-11.097657-6.648437-17.992188-18.824218-17.992188-31.777343 0-12.414063 6.167969-23.933594 16.496094-30.832031l4.105468-2.734376c2.132813-1.417968 3.398438-3.785156 3.398438-6.34375 0-13.03125 10.601562-23.632812 23.632812-23.632812h8.34375c-10.550781-25.222656-30.753906-45.425781-55.976562-55.976562zm-143.59375 87.976562h21.707031c7.984375 0 15.167969-4.441406 18.734375-11.574219 6.304688-12.59375 18.96875-20.425781 33.039063-20.425781h7.417969c3.695312 0 6.695312-3 6.695312-6.6875 0-18.59375 14.679688-33.3125 32.71875-33.3125 4.015625 0 7.28125-3.265625 7.28125-7.28125v-13.816406c-7.71875-1.832032-15.726562-2.902344-24-2.902344-54.640625 0-99.480469 42.390625-103.59375 96zm103.59375 112c5.457031 0 10.769531-.550781 16-1.359375v-1.992187c0-4.121094-2.625-7.761719-6.527344-9.0625-10.449218-3.480469-17.472656-13.226563-17.472656-24.234376v-7.222656c0-6.105468-2.015625-12.152344-5.671875-17.03125-7.6875-10.242187-21.335937-14.074218-33.238281-9.3125l-7.617188 3.046875c-5.257812 2.097657-10.800781 3.167969-16.480468 3.167969h-24.96875c15.703124 37.542969 52.800781 64 95.976562 64zm152 104v-80c0-4.414062-3.585938-8-8-8h-288c-4.414062 0-8 3.585938-8 8v80c0 4.414062 3.585938 8 8 8h288c4.414062 0 8-3.585938 8-8zm16 16v8h48v-8c0-10.414062 6.710938-19.214844 16-22.527344v-33.472656h-8c-30.871094 0-56 25.128906-56 56zm72-8c-4.414062 0-8 3.585938-8 8v32c0 4.414062 3.585938 8 8 8s8-3.585938 8-8v-32c0-4.414062-3.585938-8-8-8zm0 144c7.359375 0 14.457031-1.121094 21.152344-3.183594-4.082032-7.671875-12.121094-12.816406-21.152344-12.816406-9.039062 0-17.078125 5.144531-21.152344 12.816406 6.695313 2.0625 13.792969 3.183594 21.152344 3.183594zm72-72v-40h-48v8c0 13.230469-10.769531 24-24 24s-24-10.769531-24-24v-8h-48v40c0 26.679688 14.625 49.96875 36.238281 62.40625 6.609375-13.375 20.304688-22.40625 35.761719-22.40625 15.449219 0 29.144531 9.039062 35.761719 22.40625 21.613281-12.4375 36.238281-35.726562 36.238281-62.40625zm-56-120h-8v33.472656c9.289062 3.3125 16 12.113282 16 22.527344v8h48v-8c0-30.871094-25.128906-56-56-56zm-8-32h-16c-4.414062 0-8 3.585938-8 8v8h32v-8c0-4.414062-3.585938-8-8-8zm7.023438-70.625 44.015624-17.605469c7.871094-3.152343 12.960938-10.65625 12.960938-19.144531 0-11.378906-9.246094-20.625-20.625-20.625h-171.78125c-2.730469 41.089844-26.144531 76.527344-59.984375 96h84.390625c13.230469 0 24 10.769531 24 24v50.839844c9.992188-12.367188 23.984375-21.335938 40-24.992188v-9.847656c0-13.230469 10.769531-24 24-24v-20.625c0-15.0625 9.039062-28.40625 23.023438-34zm0 0" fill="url(#a)"/></svg>